<?xml version="1.0" encoding="utf-8"?><svg version="1.1" id="Layer_1" xmlns="http://www.w3.org/2000/svg" xmlns:xlink="http://www.w3.org/1999/xlink" x="0px" y="0px" width="122.88px" height="96.512px" viewBox="0 0 122.88 96.512" enable-background="new 0 0 122.88 96.512" xml:space="preserve"><g><path fill-rule="evenodd" clip-rule="evenodd" d="M101.771,71.453h19.247c1.025,0,1.861,0.842,1.861,1.863v19.336 c0,1.021-0.84,1.863-1.861,1.863h-19.247c-1.024,0-1.864-0.838-1.864-1.863V73.316C99.907,72.293,100.745,71.453,101.771,71.453 L101.771,71.453L101.771,71.453z M3.856,0h19.247c1.056,0,2.02,0.436,2.721,1.136l0.003-0.004c0.699,0.699,1.133,1.665,1.133,2.726 v88.794c0,1.061-0.435,2.027-1.133,2.725s-1.663,1.133-2.725,1.133H3.856c-1.056,0-2.021-0.436-2.725-1.141 C0.435,94.672,0,93.711,0,92.652V3.858C0,2.8,0.434,1.838,1.131,1.139C1.834,0.437,2.799,0,3.856,0L3.856,0z M22.973,3.989H3.988 v88.533h18.985V3.989L22.973,3.989z M36.494,28.668h19.248c1.063,0,2.028,0.434,2.726,1.132c0.699,0.699,1.132,1.665,1.132,2.726 v60.126c0,1.055-0.436,2.02-1.137,2.721l0.004,0.004c-0.698,0.699-1.664,1.133-2.725,1.133H36.494 c-1.061,0-2.027-0.434-2.726-1.133c-0.698-0.697-1.132-1.662-1.132-2.725V32.526c0-1.054,0.433-2.016,1.131-2.718l0.004-0.004 l0.004-0.004l0.005-0.005C34.483,29.099,35.443,28.668,36.494,28.668L36.494,28.668z M55.611,32.657H36.625v59.865h18.986V32.657 L55.611,32.657z M69.133,50.664H88.38c1.063,0,2.028,0.434,2.727,1.133c0.052,0.051,0.1,0.105,0.145,0.16 c0.613,0.686,0.987,1.586,0.987,2.566v38.131c0,1.057-0.434,2.02-1.132,2.717l-0.004,0.004l0.004,0.004 c-0.698,0.699-1.663,1.133-2.727,1.133v-0.008l-19.247-0.002v0.008c-1.062,0-2.027-0.434-2.727-1.131 c-0.697-0.699-1.131-1.662-1.131-2.727V54.523c0-1.055,0.433-2.018,1.131-2.719l0.004-0.004l0.004-0.004l0.006-0.006 C67.121,51.096,68.082,50.664,69.133,50.664L69.133,50.664z M88.249,54.652H69.264v37.877l18.985,0.002V54.652L88.249,54.652z M69.133,92.529L69.133,92.529L69.133,92.529L69.133,92.529L69.133,92.529z"/></g></svg>